<?xml version="1.0" encoding="iso-8859-1"?>
<!-- Generator: Adobe Illustrator 18.1.1, SVG Export Plug-In . SVG Version: 6.00 Build 0)  -->
<svg version="1.1" id="Layer_1" xmlns="http://www.w3.org/2000/svg" xmlns:xlink="http://www.w3.org/1999/xlink" x="0px" y="0px"
	 viewBox="0 0 107.959 41.998" style="enable-background:new 0 0 107.959 41.998;" xml:space="preserve">
<g>
	<path d="M91.944,29.175c-7.595,5.503-17.405,3.586-22.527-2.971c-5.058-6.476-4.499-15.712,1.295-21.46
		c5.863-5.817,14.979-6.346,21.523-1.244c6.42,5.005,8.438,14.849,2.895,22.49c1.009,0.898,2.021,1.805,3.039,2.704
		c2.861,2.528,5.732,5.044,8.583,7.582c1.548,1.377,1.607,3.38,0.181,4.807c-1.336,1.337-3.41,1.194-4.758-0.331
		C98.773,36.904,95.373,33.056,91.944,29.175z M82.283,2.587c-7.563-0.026-13.678,5.998-13.715,13.51
		c-0.037,7.552,5.996,13.678,13.508,13.715c7.52,0.037,13.673-6.041,13.711-13.544C95.825,8.802,89.716,2.613,82.283,2.587z"/>
	<path d="M67.208,3.454c-0.564,0.792-0.981,1.439-1.472,2.025c-0.133,0.158-0.488,0.179-0.742,0.179
		c-5.82,0.013-11.64,0.016-17.46,0.017C36.873,5.676,26.211,5.663,15.549,5.686c-1.719,0.004-3.479-0.04-5.15,0.29
		C6.103,6.824,2.8,10.546,2.284,14.837c-0.532,4.421,1.731,8.686,5.645,10.707c1.704,0.88,3.516,1.18,5.406,1.179
		c14.64-0.009,29.281-0.014,43.921-0.021c2.591-0.001,5.183,0.004,7.774-0.016c0.404-0.003,0.669,0.094,0.897,0.447
		c0.369,0.571,0.798,1.104,1.3,1.785c-0.374,0-0.67,0-0.967,0c-8.138,0-16.277,0-24.415,0.001
		c-9.659,0.001-19.319,0.009-28.978-0.001c-4.369-0.004-7.864-1.791-10.464-5.292c-4.138-5.573-2.78-13.811,2.901-17.794
		c2.287-1.604,4.814-2.393,7.605-2.382c3.567,0.014,7.134,0.007,10.701,0.003c6.433-0.007,12.865-0.028,19.298-0.027
		c7.454,0.001,14.909,0.018,22.363,0.028C65.858,3.455,66.444,3.454,67.208,3.454z"/>
	<path d="M10.297,18c0.478,0,0.888-0.036,1.285,0.017c0.168,0.022,0.385,0.199,0.454,0.359c0.572,1.344,2.711,1.872,3.816,0.924
		c0.62-0.532,0.467-1.44-0.346-1.736c-0.807-0.294-1.652-0.485-2.479-0.724c-0.261-0.076-0.526-0.147-0.779-0.246
		c-1.126-0.444-1.638-1.159-1.631-2.256c0.007-1.017,0.616-1.887,1.643-2.284c1.287-0.496,2.589-0.476,3.856,0.048
		c1.033,0.428,1.575,1.248,1.653,2.412c-0.557,0-1.094,0-1.632-0.001c-0.587-1.227-1.576-1.648-2.888-1.217
		c-0.481,0.158-0.858,0.427-0.882,0.996c-0.023,0.545,0.371,0.769,0.786,0.896c0.736,0.226,1.494,0.38,2.236,0.586
		c0.391,0.109,0.771,0.26,1.153,0.4c1.904,0.699,1.908,3.224,0.378,4.315c-1.372,0.978-4.162,0.963-5.493-0.064
		C10.663,19.836,10.331,19.03,10.297,18z"/>
	<path d="M52.1,21.009c-0.587,0-1.1,0-1.694,0c0-0.998,0.001-1.946,0-2.893c-0.001-0.522,0.026-1.047-0.014-1.566
		c-0.065-0.84-0.637-1.183-1.434-0.899c-0.744,0.265-1.079,0.734-1.079,1.514c0,1.265,0,2.531,0,3.834c-0.602,0-1.114,0-1.699,0
		c-0.015-0.26-0.042-0.499-0.042-0.739c-0.006-2.589,0.004-5.177-0.024-7.766c-0.006-0.527,0.173-0.689,0.67-0.638
		c0.332,0.034,0.67,0.006,1.057,0.006c0,1.098,0,2.109,0,3.17c0.475-0.24,0.871-0.497,1.304-0.648
		c1.528-0.533,2.859,0.282,2.96,1.88c0.089,1.402,0.036,2.813,0.041,4.221C52.147,20.639,52.12,20.793,52.1,21.009z"/>
	<path d="M30.859,20.666c-0.942,0.547-1.912,0.668-2.926,0.416c-0.811-0.202-1.336-0.782-1.429-1.545
		c-0.107-0.885,0.203-1.649,0.989-1.987c0.653-0.281,1.378-0.42,2.084-0.542c0.459-0.079,0.942-0.015,1.435-0.015
		c0.056-0.714,0.01-1.296-0.666-1.564c-0.716-0.284-1.591-0.039-1.933,0.543c-0.409,0.696-1.025,0.137-1.51,0.353
		c-0.118-0.818,0.215-1.453,1.003-1.744c1.255-0.464,2.536-0.491,3.793,0.019c0.601,0.244,0.96,0.744,0.989,1.366
		c0.073,1.565,0.081,3.133,0.102,4.7c0.002,0.116-0.066,0.278-0.156,0.342C32.332,21.224,31.163,21.005,30.859,20.666z
		 M30.944,17.904c-0.713,0.123-1.447,0.191-2.144,0.391c-0.461,0.132-0.675,0.619-0.491,1.047c0.126,0.293,0.494,0.611,0.803,0.674
		C30.441,20.284,31.215,19.442,30.944,17.904z"/>
	<path d="M25.567,18.109c-0.831,0-1.622,0-2.412,0c-0.765,0-1.53,0-2.286,0c-0.054,0.942,0.334,1.637,0.973,1.853
		c0.755,0.256,1.389,0.012,1.951-0.675c0.124-0.152,0.405-0.214,0.623-0.24c0.331-0.039,0.67-0.01,1.014-0.01
		c-0.26,1.556-1.722,2.406-3.582,2.14c-2.105-0.302-3.113-1.813-2.799-4.195c0.246-1.866,1.709-2.924,3.736-2.702
		C24.737,14.494,25.754,15.843,25.567,18.109z M23.767,16.981c-0.06-1.041-0.632-1.645-1.486-1.63
		c-0.828,0.015-1.321,0.582-1.382,1.63C21.84,16.981,22.778,16.981,23.767,16.981z"/>
	<path d="M45.067,18.878c-0.225,1.618-1.491,2.506-3.229,2.326c-1.724-0.178-2.802-1.312-2.889-3.043
		c-0.014-0.272-0.02-0.545-0.007-0.816c0.125-2.529,2.755-3.965,4.962-2.704c0.717,0.41,1.091,1.052,1.199,1.946
		c-0.458,0-0.885,0.031-1.304-0.017c-0.148-0.017-0.262-0.244-0.413-0.343c-0.378-0.247-0.746-0.607-1.159-0.678
		c-0.535-0.091-1.008,0.236-1.244,0.765c-0.411,0.918-0.379,1.86-0.024,2.778c0.205,0.531,0.668,0.801,1.235,0.815
		c0.534,0.013,0.955-0.195,1.228-0.699c0.083-0.154,0.316-0.293,0.495-0.316C44.291,18.845,44.677,18.878,45.067,18.878z"/>
	<path d="M34.345,14.476c1.565-0.177,1.65-0.146,1.786,0.57c0.439-0.242,0.86-0.559,1.335-0.717
		c0.774-0.258,0.979-0.074,0.987,0.718c0.002,0.221,0,0.441,0,0.622c-0.118,0.058-0.157,0.094-0.195,0.093
		c-1.583-0.033-2.318,0.28-2.161,2.24c0.066,0.834-0.006,1.678,0.018,2.517c0.012,0.423-0.153,0.574-0.559,0.537
		c-0.248-0.022-0.516,0.049-0.743-0.023c-0.181-0.057-0.445-0.264-0.447-0.407C34.336,18.589,34.345,16.551,34.345,14.476z"/>
	<path d="M54.901,21.036c-0.454-0.032-0.744-0.276-0.732-0.766c0.01-0.452,0.283-0.701,0.737-0.711
		c0.462-0.011,0.743,0.252,0.758,0.689C55.679,20.707,55.428,21.012,54.901,21.036z"/>
	<path d="M57.282,21.145c-0.195-0.272-0.5-0.521-0.561-0.82c-0.097-0.471,0.212-0.756,0.706-0.763
		c0.501-0.007,0.802,0.307,0.732,0.754c-0.047,0.298-0.375,0.551-0.577,0.824C57.482,21.142,57.382,21.143,57.282,21.145z"/>
	<path d="M60.049,19.561c0.437,0.029,0.659,0.346,0.634,0.805c-0.024,0.448-0.318,0.688-0.771,0.666
		c-0.453-0.023-0.721-0.297-0.715-0.738C59.202,19.82,59.481,19.554,60.049,19.561z"/>
	<path d="M82.857,5.067c4.422,0.453,7.66,2.598,9.542,6.678c0.085,0.185,0.156,0.379,0.214,0.574
		c0.174,0.583-0.057,1.118-0.579,1.27c-0.566,0.165-0.993-0.054-1.207-0.597c-0.551-1.397-1.349-2.616-2.467-3.628
		c-1.556-1.408-3.381-2.175-5.461-2.36c-0.271-0.024-0.546-0.022-0.816-0.057c-0.552-0.071-0.872-0.387-0.865-0.952
		c0.007-0.566,0.334-0.875,0.89-0.924C82.356,5.048,82.607,5.067,82.857,5.067z"/>
	<path d="M91.384,16.274c0-0.203-0.033-0.413,0.006-0.609c0.099-0.496,0.399-0.82,0.923-0.832c0.552-0.013,0.903,0.283,0.978,0.832
		c0.045,0.333,0.044,0.678,0.016,1.013c-0.053,0.628-0.441,0.986-0.998,0.968c-0.549-0.018-0.918-0.421-0.945-1.034
		c-0.005-0.113-0.001-0.226-0.001-0.339C91.371,16.274,91.377,16.274,91.384,16.274z"/>
</g>
</svg>
